<svg xmlns="http://www.w3.org/2000/svg" width="1200" height="680" viewBox="0 0 1200 680">
  <rect width="1200" height="680" fill="#eef3f9"/>
  <rect x="30" y="30" width="1140" height="620" fill="#ffffff" stroke="#b8c4d1"/>
  <text x="50" y="64" font-family="Segoe UI, Arial" font-size="22" fill="#1d4e80" font-weight="700">Escala de Tecnico de Enfermagem</text>

  <rect x="40" y="84" width="180" height="32" rx="5" fill="#2b5f96"/>
  <text x="130" y="105" text-anchor="middle" font-family="Segoe UI, Arial" font-size="14" fill="#ffffff" font-weight="700">Adicionar tecnico</text>

  <rect x="40" y="126" width="1120" height="44" fill="#d8e3ef" stroke="#c3cfdb"/>
  <g font-family="Segoe UI, Arial" font-size="14" fill="#26425e" font-weight="700">
    <text x="58" y="154">Matricula</text>
    <text x="165" y="154">Colaborador</text>
    <text x="300" y="154">Setor</text>
    <text x="390" y="154">Leitos</text>
    <text x="540" y="154">Atribuicoes</text>
    <text x="700" y="154">Assistencia</text>
    <text x="855" y="154">Descanso</text>
    <text x="940" y="154">Acoes</text>
    <text x="1055" y="154">Obs</text>
  </g>

  <rect x="40" y="170" width="1120" height="458" fill="#ffffff" stroke="#c3cfdb"/>
  <line x1="145" y1="170" x2="145" y2="628" stroke="#c3cfdb"/>
  <line x1="280" y1="170" x2="280" y2="628" stroke="#c3cfdb"/>
  <line x1="370" y1="170" x2="370" y2="628" stroke="#c3cfdb"/>
  <line x1="520" y1="170" x2="520" y2="628" stroke="#c3cfdb"/>
  <line x1="680" y1="170" x2="680" y2="628" stroke="#c3cfdb"/>
  <line x1="835" y1="170" x2="835" y2="628" stroke="#c3cfdb"/>
  <line x1="930" y1="170" x2="930" y2="628" stroke="#c3cfdb"/>
  <line x1="1045" y1="170" x2="1045" y2="628" stroke="#c3cfdb"/>

  <rect x="52" y="182" width="80" height="30" rx="4" fill="#f7fbff" stroke="#c3cfdb"/>
  <text x="92" y="202" text-anchor="middle" font-family="Segoe UI, Arial" font-size="12" fill="#3b4f63">Matricula</text>
  <text x="157" y="202" font-family="Segoe UI, Arial" font-size="12" fill="#3b4f63">TECNICO 1</text>
  <text x="292" y="202" font-family="Segoe UI, Arial" font-size="12" fill="#3b4f63">CLINICA 1</text>
  <text x="384" y="202" font-family="Segoe UI, Arial" font-size="12" fill="#3b4f63">101 102 103</text>
  <text x="384" y="220" font-family="Segoe UI, Arial" font-size="12" fill="#3b4f63">201 202 203</text>
  <text x="384" y="238" font-family="Segoe UI, Arial" font-size="12" fill="#3b4f63">301 302 303</text>
</svg>
