<svg xmlns="http://www.w3.org/2000/svg" width="1200" height="680" viewBox="0 0 1200 680">
  <rect width="1200" height="680" fill="#eef3f9"/>
  <rect x="30" y="30" width="1140" height="620" fill="#ffffff" stroke="#b8c4d1"/>
  <text x="50" y="64" font-family="Segoe UI, Arial" font-size="22" fill="#1d4e80" font-weight="700">Escala de Tecnico de Enfermagem (8 tecnicos)</text>
  <rect x="40" y="84" width="1120" height="44" fill="#d8e3ef" stroke="#c3cfdb"/>
  <g font-family="Segoe UI, Arial" font-size="14" fill="#26425e" font-weight="700">
    <text x="55" y="112">Foto</text>
    <text x="128" y="112">Matricula</text>
    <text x="235" y="112">Colaborador</text>
    <text x="365" y="112">Setor</text>
    <text x="450" y="112">Leitos</text>
    <text x="565" y="112">Atribuicoes</text>
    <text x="720" y="112">Assistencia</text>
    <text x="860" y="112">Descanso</text>
    <text x="950" y="112">Acoes</text>
    <text x="1070" y="112">Obs</text>
  </g>
  <g>
    <rect x="40" y="128" width="1120" height="500" fill="#ffffff" stroke="#c3cfdb"/>
    <line x1="110" y1="128" x2="110" y2="628" stroke="#c3cfdb"/>
    <line x1="210" y1="128" x2="210" y2="628" stroke="#c3cfdb"/>
    <line x1="340" y1="128" x2="340" y2="628" stroke="#c3cfdb"/>
    <line x1="430" y1="128" x2="430" y2="628" stroke="#c3cfdb"/>
    <line x1="550" y1="128" x2="550" y2="628" stroke="#c3cfdb"/>
    <line x1="700" y1="128" x2="700" y2="628" stroke="#c3cfdb"/>
    <line x1="845" y1="128" x2="845" y2="628" stroke="#c3cfdb"/>
    <line x1="940" y1="128" x2="940" y2="628" stroke="#c3cfdb"/>
    <line x1="1055" y1="128" x2="1055" y2="628" stroke="#c3cfdb"/>
  </g>
  <g>
    <circle cx="75" cy="168" r="22" fill="#1d4e80"/>
    <text x="75" y="176" text-anchor="middle" font-family="Segoe UI, Arial" font-size="14" fill="#fff" font-weight="700">T33</text>
    <circle cx="75" cy="220" r="22" fill="#1d4e80"/>
    <text x="75" y="228" text-anchor="middle" font-family="Segoe UI, Arial" font-size="14" fill="#fff" font-weight="700">T33</text>
  </g>
</svg>
